# xmcd
#
# Track frame offsets:
#	157
#	56848
#	84460
#	130987
#	201269
#	229102
#
# Disc length: 3745 seconds
#
# Revision: 1
# Processed by: cddbd v1.5.2PL0 Copyright (c) Steve Scherf et al.
# Submitted via: EZCDAudioConverter 5.0.5.1
#
DISCID=500e9f06
DTITLE=Dennis Gorley - Piano - Grieg piano Concerto in A Minor and Schumann Pian
DTITLE=o Concerto in A minor
DYEAR=1900
DGENRE=
TTITLE0=GRIEG 1st movement Allegro Molto Moderato
TTITLE1=GRIEG 2nd movement Adagio
TTITLE2=GRIEG 3rd movement Allegro Moderato Molto E Marcato - Quasi Presto - A
TTITLE2=ndante Maestoso
TTITLE3=SCHUMANN 1 st movement:Allegro Affettuoso
TTITLE4=SCHUMANN 2nd movement:Intermezzo Andantino Grazioso
TTITLE5=SCHUMANN 3rd movement Allegro Vivace
EXTD=
EXTT0=
EXTT1=
EXTT2=
EXTT3=
EXTT4=
EXTT5=
PLAYORDER=
